<svg xmlns="http://www.w3.org/2000/svg" width="512" height="512" viewBox="0 0 512 512">
  <defs>
    <linearGradient id="bg" x1="0" y1="0" x2="512" y2="512" gradientUnits="userSpaceOnUse">
      <stop offset="0%" stop-color="#1a1a2e"/>
      <stop offset="100%" stop-color="#16213e"/>
    </linearGradient>
    <linearGradient id="ring" x1="0" y1="0" x2="512" y2="512" gradientUnits="userSpaceOnUse">
      <stop offset="0%" stop-color="#f59e0b"/>
      <stop offset="100%" stop-color="#e8a838"/>
    </linearGradient>
  </defs>
  <!-- Background circle -->
  <circle cx="256" cy="256" r="248" fill="url(#bg)" stroke="url(#ring)" stroke-width="8"/>
  <!-- Planet body -->
  <circle cx="256" cy="248" r="120" fill="#0f3460" opacity="0.9"/>
  <path d="M136 248 Q180 276 256 274 Q332 272 376 248" fill="none" stroke="#f59e0b" stroke-width="5" opacity="0.6"/>
  <path d="M148 218 Q192 248 256 246 Q320 244 364 218" fill="none" stroke="#f59e0b" stroke-width="4" opacity="0.4"/>
  <path d="M160 188 Q200 218 256 216 Q312 214 352 188" fill="none" stroke="#f59e0b" stroke-width="3" opacity="0.25"/>
  <!-- Craters -->
  <circle cx="220" cy="222" r="16" fill="#16213e" opacity="0.5"/>
  <circle cx="290" cy="260" r="11" fill="#16213e" opacity="0.4"/>
  <circle cx="240" cy="280" r="8" fill="#16213e" opacity="0.3"/>
  <circle cx="200" cy="260" r="5" fill="#16213e" opacity="0.25"/>
  <!-- Stars -->
  <circle cx="150" cy="140" r="3.5" fill="#fff" opacity="0.7"/>
  <circle cx="340" cy="130" r="2.5" fill="#fff" opacity="0.5"/>
  <circle cx="380" cy="180" r="3" fill="#fff" opacity="0.6"/>
  <circle cx="130" cy="300" r="2.5" fill="#fff" opacity="0.4"/>
  <circle cx="170" cy="350" r="3" fill="#fff" opacity="0.5"/>
  <circle cx="320" cy="340" r="2.5" fill="#fff" opacity="0.4"/>
  <circle cx="390" cy="260" r="2" fill="#fff" opacity="0.3"/>
  <circle cx="100" cy="200" r="2" fill="#fff" opacity="0.35"/>
  <circle cx="360" cy="380" r="2" fill="#fff" opacity="0.3"/>
</svg>
