<svg xmlns="http://www.w3.org/2000/svg" width="192" height="192" viewBox="0 0 192 192">
  <defs>
    <linearGradient id="bg" x1="0" y1="0" x2="192" y2="192" gradientUnits="userSpaceOnUse">
      <stop offset="0%" stop-color="#1a1a2e"/>
      <stop offset="100%" stop-color="#16213e"/>
    </linearGradient>
    <linearGradient id="ring" x1="0" y1="0" x2="192" y2="192" gradientUnits="userSpaceOnUse">
      <stop offset="0%" stop-color="#f59e0b"/>
      <stop offset="100%" stop-color="#e8a838"/>
    </linearGradient>
  </defs>
  <!-- Background circle -->
  <circle cx="96" cy="96" r="92" fill="url(#bg)" stroke="url(#ring)" stroke-width="4"/>
  <!-- Planet body -->
  <circle cx="96" cy="92" r="44" fill="#0f3460" opacity="0.9"/>
  <path d="M52 92 Q68 106 96 104 Q124 102 140 92" fill="none" stroke="#f59e0b" stroke-width="2.5" opacity="0.6"/>
  <path d="M56 80 Q72 94 96 92 Q120 90 136 80" fill="none" stroke="#f59e0b" stroke-width="1.8" opacity="0.4"/>
  <!-- Craters -->
  <circle cx="80" cy="82" r="6" fill="#16213e" opacity="0.5"/>
  <circle cx="108" cy="96" r="4" fill="#16213e" opacity="0.4"/>
  <circle cx="90" cy="104" r="3" fill="#16213e" opacity="0.3"/>
  <!-- Star dots -->
  <circle cx="58" cy="60" r="1.5" fill="#fff" opacity="0.7"/>
  <circle cx="130" cy="55" r="1" fill="#fff" opacity="0.5"/>
  <circle cx="140" cy="75" r="1.2" fill="#fff" opacity="0.6"/>
  <circle cx="50" cy="110" r="1" fill="#fff" opacity="0.4"/>
  <circle cx="65" cy="130" r="1.3" fill="#fff" opacity="0.5"/>
  <circle cx="120" cy="125" r="1" fill="#fff" opacity="0.4"/>
  <circle cx="145" cy="100" r="0.8" fill="#fff" opacity="0.3"/>
</svg>
